<svg width="91" height="44" viewBox="0 0 91 44" fill="none" xmlns="http://www.w3.org/2000/svg"><g clip-path="url(#clip0_636_12916)"><path d="M52.4612 26.598H46.7403V23.3861H52.4638C53.4046 23.4016 54.1645 24.1063 54.1645 24.986C54.1645 25.8665 53.402 26.598 52.4612 26.598ZM46.7403 17.1801H52.3621C53.1315 17.1896 53.7837 17.7832 53.7837 18.5621C53.7837 19.3375 53.1005 19.9561 52.3285 19.9467H46.7412V17.1819L46.7403 17.1801ZM55.693 21.6733C56.751 20.928 57.1507 19.6942 57.1507 18.3372C57.1507 15.7835 55.0011 13.7373 52.3655 13.7373H42.8193V30.0417H52.7403V30.0478C55.5267 30.0478 57.846 27.8973 57.846 25.2643C57.846 23.5472 56.8121 22.2764 55.693 21.6733ZM70.4147 13.7002V22.8674C70.4147 25.6692 68.7777 26.8444 66.7668 26.8444C64.7524 26.8444 63.1292 25.6727 63.1292 22.8691V13.702H59.0669V22.895C59.0669 28.7597 62.5106 30.4674 66.7668 30.4674C71.0264 30.4674 74.4736 28.7597 74.4736 22.8941V13.7011H70.4147V13.7002ZM84.6686 20.0544C81.3808 19.341 80.2703 19.0239 80.2703 17.9805C80.2703 17.0604 81.461 16.596 83.3401 16.596C85.1149 16.596 87.2576 17.3533 88.5155 18.1072L89.7976 14.7901C87.8909 13.9958 85.5974 13.2358 82.5646 13.2358C78.5885 13.2358 76.1063 15.5621 76.1063 18.4053C76.1063 21.2519 78.1516 22.5038 82.2054 23.3628C85.3475 24.0262 86.1996 24.4268 86.1996 25.4047C86.1996 26.3826 84.9391 26.7436 83.2358 26.7436C81.0302 26.7436 78.9081 26.0078 76.9093 25.1497L75.7005 28.3832C78.0905 29.4912 80.5718 30.3803 83.5305 30.3803C88.4604 30.3803 90.4713 28.0231 90.4713 25.2755C90.4713 22.8329 88.7801 20.9495 84.6686 20.0544ZM8.23822 13.7364L0.00585938 30.0383L4.8953 30.0417L6.12563 27.42H11.7414L9.99411 23.8487H7.77727L9.86487 19.3901L15.1239 30.0417H20.0263L11.4734 13.7373L8.23822 13.7364ZM41.3158 19.1583C41.3158 16.1885 39.2799 13.7795 35.0953 13.7795H26.6406V30.084L30.5591 30.0805V17.2232H35.3658C36.7865 17.2232 37.3767 18.1037 37.3767 19.1497C37.3767 20.1991 36.7555 21.0391 35.3348 21.0391H31.9738L37.0597 30.0814H41.0823C41.0823 30.0814 37.6016 24.171 37.6188 24.1675C40.132 23.3861 41.3158 21.4803 41.3158 19.1583ZM20.8655 30.0478H24.9183V13.7468H20.8655V30.0478Z" fill="white"/></g><defs><clipPath id="clip0_636_12916"><rect width="90.4655" height="43.0788" fill="white" transform="translate(0.00585938 0.312012)"/></clipPath></defs></svg>
