<svg xmlns="http://www.w3.org/2000/svg" width="100" height="19" fill="none"><g clip-path="url(#a)"><mask id="b" width="100" height="19" x="0" y="0" maskUnits="userSpaceOnUse" style="mask-type:luminance"><path fill="#fff" d="M.406.144h98.658v18.215H.406V.144Z"/></mask><g mask="url(#b)"><path fill="#fff" d="M.406.144H7.64c1.377 0 2.41.344 3.177.918.842.689 1.3 1.683 1.3 2.909 0 1.416-.574 2.296-1.722 2.831v.077c1.531.497 2.412 1.875 2.412 3.52 0 1.57-.613 2.794-1.607 3.56-.844.612-1.914.88-3.368.88H.406V.144Zm6.506 5.74c.765 0 1.34-.422 1.34-1.3 0-.844-.575-1.265-1.378-1.265H4.387v2.527h2.525v.038Zm.345 5.702c.88 0 1.53-.535 1.53-1.492 0-1.034-.689-1.493-1.53-1.493H4.424v3.023h2.833v-.038ZM13.456.144h3.788v14.733h-3.788V.144Zm4.554 9.49c0-3.329 2.143-5.549 5.472-5.549 3.33 0 5.435 2.258 5.435 5.55 0 3.329-2.105 5.549-5.435 5.549-3.329 0-5.472-2.22-5.472-5.55Zm7.118 0c0-1.836-.574-2.984-1.722-2.984-1.148 0-1.684 1.148-1.684 2.984 0 1.837.536 3.023 1.684 3.023 1.148-.038 1.722-1.186 1.722-3.023Zm4.21 0c0-3.329 2.143-5.549 5.472-5.549 3.33 0 5.396 2.22 5.396 5.55 0 3.329-2.104 5.549-5.434 5.549-3.292 0-5.435-2.22-5.435-5.55Zm7.118 0c0-1.836-.574-2.984-1.722-2.984-1.148 0-1.684 1.148-1.684 2.984 0 1.837.536 3.023 1.684 3.023 1.148-.038 1.722-1.186 1.722-3.023Zm4.515-5.28h3.521v1.57h.076c.69-1.226 1.646-1.877 3.177-1.877 1.34 0 2.335.651 2.832 1.799h.077c.841-1.378 1.951-1.8 3.253-1.8 2.448 0 3.482 1.8 3.482 4.21v6.583h-3.674V8.906c0-1.072-.345-1.76-1.263-1.76-.918 0-1.378.843-1.378 1.99v5.702h-3.673V8.906c0-1.072-.345-1.76-1.263-1.76-.919 0-1.378.843-1.378 1.99v5.702h-3.79V4.354Zm21.05 9.107h-.04v1.378h-3.52V.144h3.674v5.28h.076c.689-.918 1.646-1.415 2.985-1.415 2.64 0 4.171 2.372 4.171 5.548 0 3.56-1.645 5.627-4.4 5.627-1.149 0-2.335-.537-2.947-1.723Zm3.558-3.941c0-1.685-.613-2.794-1.722-2.794-1.148 0-1.837 1.11-1.837 2.794 0 1.683.727 2.793 1.837 2.793 1.11 0 1.722-1.071 1.722-2.793Zm4.21.077c0-3.292 2.18-5.55 5.319-5.55 1.57 0 2.756.498 3.674 1.377 1.224 1.187 1.76 3.024 1.722 5.167h-7.041c.152 1.301.765 1.99 1.874 1.99.651 0 1.225-.306 1.455-.995h3.559c-.613 2.411-2.487 3.597-5.129 3.597-3.253-.038-5.434-2.258-5.434-5.587Zm3.674-1.11h3.368c-.078-1.263-.767-1.915-1.646-1.915-1.034-.037-1.608.69-1.722 1.914Zm11.212-2.335h.077c.765-1.454 1.76-2.028 3.022-2.028.307 0 .498.038.613.115v3.214h-.076c-2.182-.383-3.444.65-3.444 3.023v4.4h-3.714V4.355h3.522v1.798Zm4.095 8.725h3.559c.153.459.612.88 1.492.88 1.187 0 1.607-.727 1.607-1.836v-.766h-.076c-.574.689-1.377 1.186-2.525 1.186-2.259 0-4.248-1.683-4.248-4.975 0-3.022 1.607-5.358 4.056-5.358 1.416 0 2.258.574 2.832 1.455h.076V4.314h3.521v9.108c0 1.683-.574 2.985-1.454 3.75-.919.805-2.22 1.149-3.712 1.149-2.832.037-4.784-1.11-5.128-3.444Zm6.812-5.664c0-1.3-.613-2.372-1.684-2.372-1.034 0-1.684.918-1.684 2.372 0 1.417.65 2.41 1.684 2.41 1.034 0 1.684-1.032 1.684-2.41Z"/></g></g><defs><clipPath id="a"><path fill="#fff" d="M.406.145h98.658V18.98H.406z"/></clipPath></defs></svg>