<svg xmlns="http://www.w3.org/2000/svg" width="161" height="13" fill="none"><g clip-path="url(#a)"><mask id="b" width="161" height="12" x="0" y="0" maskUnits="userSpaceOnUse" style="mask-type:luminance"><path fill="#fff" d="M.313.914h159.871v10.53H.313V.915Z"/></mask><g mask="url(#b)"><path fill="#fff" d="M110.119 3.813c0 1.651 1.022 2.37 2.369 2.862l1.46.523c.903.344 1.418.651 1.418 1.435 0 .9-.807 1.308-1.959 1.308-1.153 0-2.285-.426-3.203-1.162v1.786c.705.49 1.854.877 3.203.877 2.053 0 3.617-1.01 3.617-2.84 0-1.453-.723-2.338-2.299-2.907l-1.628-.588c-.84-.295-1.318-.59-1.318-1.326 0-.814.761-1.205 1.779-1.205 1.182 0 2.102.44 2.942 1.08V1.901c-.809-.521-1.843-.814-2.979-.814-1.853 0-3.402.96-3.402 2.725Zm13.054-2.554h-1.712v10.03h1.712V1.26Zm-30.868 0h-1.714v10.03h1.714V1.26Zm37.587 1.502h2.093c2.119 0 3.252 1.352 3.252 3.51 0 2.157-1.133 3.5-3.252 3.5h-2.093v-7.01Zm-1.711-1.502v10.03h3.869c2.977 0 4.903-1.96 4.903-5.018 0-3.055-1.925-5.011-4.903-5.011l-3.869-.001Zm12.39 0v10.03h6.118V9.77h-4.441V6.66h3.982V5.173h-3.982v-2.41h4.441V1.258h-6.118Zm12.942 1.471h1.919c1.135 0 1.777.606 1.777 1.536s-.642 1.535-1.777 1.535h-1.919V2.73Zm-1.707-1.47v10.028h1.707v-4.07h1.215l3.515 4.07h1.941l-3.63-4.133c1.596-.247 2.345-1.21 2.345-2.89 0-1.963-1.349-3.007-3.434-3.007h-3.659v.002ZM23.475 3.693c0 1.677 1.028 2.406 2.386 2.905l1.474.53c.91.35 1.424.665 1.424 1.462 0 .913-.81 1.329-1.971 1.329-1.16 0-2.303-.432-3.23-1.18v1.81c.713.499 1.872.896 3.23.896 2.072 0 3.645-1.028 3.645-2.888 0-1.477-.729-2.372-2.32-2.954l-1.638-.597c-.846-.3-1.326-.598-1.326-1.345 0-.83.763-1.228 1.79-1.228 1.192 0 2.12.446 2.964 1.095V1.752C29.091 1.22 28.048.92 26.905.92c-1.872 0-3.43.98-3.43 2.772Zm51.779-.007c0 1.677 1.028 2.407 2.386 2.904l1.474.532c.91.348 1.425.665 1.425 1.46 0 .913-.811 1.328-1.97 1.328-1.16 0-2.304-.432-3.232-1.178v1.81c.713.496 1.873.895 3.231.895 2.071 0 3.645-1.03 3.645-2.888 0-1.477-.73-2.374-2.32-2.954l-1.639-.598c-.845-.299-1.325-.597-1.325-1.344 0-.83.762-1.229 1.789-1.229 1.194 0 2.12.448 2.965 1.095V1.744c-.811-.531-1.855-.83-2.997-.83-1.873 0-3.43.98-3.43 2.772m-10.407 0c0 1.677 1.027 2.407 2.385 2.904l1.475.532c.911.348 1.425.665 1.425 1.46 0 .913-.812 1.328-1.971 1.328s-2.303-.432-3.231-1.178v1.81c.712.496 1.872.895 3.231.895 2.071 0 3.644-1.03 3.644-2.888 0-1.477-.728-2.374-2.319-2.954l-1.64-.598c-.845-.299-1.325-.597-1.325-1.344 0-.83.76-1.229 1.787-1.229 1.194 0 2.122.448 2.966 1.095V1.744c-.811-.531-1.857-.83-2.998-.83-1.873 0-3.43.98-3.43 2.772m-10.09-2.6v10.192h6.163V9.737h-4.475V6.575h4.013v-1.51h-4.013V2.614h4.475V1.086h-6.163ZM1.986 6.796h2.187c1.16 0 1.789.565 1.789 1.495 0 .928-.63 1.492-1.79 1.492H1.987V6.796h-.001Zm0-4.215h1.871c1.177 0 1.806.415 1.806 1.377S5.033 5.37 3.857 5.37H1.986V2.58v.001ZM.313 1.087v10.192h3.893c2.12 0 3.446-1.013 3.446-2.921 0-1.08-.695-2.025-1.657-2.341C6.74 5.75 7.32 4.955 7.32 3.859c0-1.826-1.326-2.771-3.447-2.771H.312v-.001Zm36.276 0h-1.722v10.19h1.723V1.088Zm-18.812 0v5.942c0 1.959-.828 2.872-2.352 2.872s-2.353-.913-2.353-2.872V1.086h-1.723v6.126c0 2.804 1.657 4.233 4.075 4.233 2.42 0 4.076-1.428 4.076-4.216V1.086h-1.723Zm30.721 0v6.516L41.505.928v10.35h1.66V4.65l6.988 6.788V1.087h-1.655Zm48.717 10.201h1.648V4.764l6.937 6.677V1.258h-1.643V7.67l-6.942-6.567V11.288Z"/></g></g><defs><clipPath id="a"><path fill="#fff" d="M.313.914h159.87V12.21H.314z"/></clipPath></defs></svg>