<svg xmlns="http://www.w3.org/2000/svg" width="103" height="52" fill="none"><path fill="#fff" d="M25.712 16.659c-.615-1.537-2.115-3.204-4.921-2.967-3.576.387-4.691 3.815-4.15 5.859-1.433-.964-3.846-1.387-5.96.422-2.73 2.735-1.27 6.436.231 7.323-1.654-.153-4.266.965-4.845 3.878-.615 3.629 2.151 5.744 4.845 5.744h29.862c3.115 0 4.843-2.695 4.65-5.236-.305-3.317-3.34-4.59-4.996-4.316 1.382-.772 3.23-4.397.422-7.246-2.23-2.122-5.073-1.35-6.072-.425.54-1.771-.338-5.434-3.962-6.013a6.476 6.476 0 0 0-.72-.043c-2.76 0-4.002 2.019-4.383 3.011"/><path fill="#000" d="M11.177 20.55c-1.576 1.429-2.151 4.662.69 6.555l11.342 7.78-5.498-12.599c-1.153-2.973-4.306-3.62-6.535-1.736M20.94 14.425c-1.843.039-4.61 2.234-3.372 5.586l5.69 13.413 1.997-14.108c.463-3.507-2.192-5.126-4.3-4.891M26.131 18.777h1.077s.573 0 .652.27c-.424.338-1.576.389-1.422 2.236l1.808 12.138 5.647-13.449c1.155-3.003-1.269-5.51-3.422-5.588l-.306-.014c-1.938 0-4.144 1.404-4.036 4.404M33.669 22.4l-5.343 12.447 11.337-7.821c2.613-1.855 2.192-4.817.73-6.283-.614-.689-1.74-1.223-2.934-1.223-1.409 0-2.917.748-3.794 2.88M38.394 28.798l-10.648 7.438H40.86c2.697 0 4.418-2.782 3.65-5.31-.507-1.6-2.039-2.857-3.806-2.866-.745 0-1.535.224-2.309.738ZM10.87 36.234h12.918l-10.65-7.438c-2.461-1.581-5.226-.655-6.226 1.968-.846 3.003 1.267 5.479 3.96 5.479"/><path fill="#fff" d="M46.86 25.249c0 1.605 1.312 4.53 6.325 4.53 4.622 0 6.081-2.122 6.081-3.095h-3.578s-.17 1.283-2.187 1.283-2.565-1.686-2.565-2.66c0-.976.546-2.566 2.565-2.566 2.02 0 2.188 1.119 2.188 1.119h3.578c0-.974-1.07-3.066-6.082-3.066-5.01 0-6.326 3.114-6.326 4.453m37.53 0c0 1.606 1.314 4.53 6.325 4.53 4.621 0 6.082-2.12 6.082-3.094H93.22s-.172 1.284-2.19 1.284c-2.019 0-2.567-1.686-2.567-2.66 0-.976.548-2.566 2.567-2.566 2.018 0 2.19 1.119 2.19 1.119h3.576c0-.974-1.071-3.066-6.082-3.066s-6.326 3.114-6.326 4.453Zm-15.34-4.293v5.438l-4.165-5.438H60.2v8.612h3.204v-5.5l4.09 5.5h4.758v-8.61h-3.204l.002-.002Zm10.282 6.547v.01h-2.666v-1.58h2.676v-.003c.572 0 1.034.351 1.034.784 0 .432-.462.78-1.034.78m-2.651-4.887h2.58v.003c.436 0 .791.287.791.64 0 .354-.353.641-.792.641v.004h-2.587l.008-1.29v.002Zm5.28 2.358c.584 0 1.806-.68 1.806-1.994 0-1.871-3.486-2.04-4.02-2.04h-6.422v8.611h6.422c3.09 0 4.332-.975 4.332-2.606 0-1.63-2.108-1.972-2.108-1.972h-.01Z"/></svg>