<svg xmlns="http://www.w3.org/2000/svg" width="52" height="25" fill="none"><g clip-path="url(#a)"><path fill="#fff" d="M20.714.453C18.566.42 16.66 2.157 16.66 4.67v11.318c.002.408-.303.77-.746.77h-3.538c-7.656.008-6.971-9.789-.455-9.798 2.897-.003 3.91 0 3.91 0V4.217h-4.05c-2.536.003-4.457.97-5.749 2.41-1.291 1.44-1.953 3.359-1.952 5.265 0 1.835.628 3.74 1.934 5.184 1.308 1.443 3.296 2.43 6.044 2.43h6.677a.723.723 0 0 0 .713-.708V4.969c-.003-.723.371-1.304.974-1.497.586-.185 1.228.057 1.615.608l.002.002.001.003c.94 1.537 3.284 5.31 5.402 8.71l3.695 5.926.345.553c.156.22.352.304.516.252a.368.368 0 0 0 .221-.202.98.98 0 0 0 .087-.437V4.971c-.002-.72.37-1.303.976-1.494.581-.187 1.226.056 1.609.607l.002.003v.002c1.794 2.907 3.596 5.81 5.406 8.708 2.117 3.4 4.01 6.431 4.04 6.479.153.22.362.307.537.253a.385.385 0 0 0 .226-.205.947.947 0 0 0 .09-.435V.54h-2.77v10.715s-1.714-2.909-4.638-7.928c-2.86-4.917-8.258-2.884-8.26 1.346v6.58s-1.673-2.91-4.594-7.93C23.767 1.327 22.184.476 20.714.453Zm-8.432.085c-15.914-.002-15.763 22.67.214 22.68h6.243c2.687.002 4.412-1.59 4.41-4.528v-5.743s3.501 5.806 4.875 8.078c2.337 3.863 7.994 3.103 7.98-1.722v-6.351s3.501 5.803 4.877 8.078c2.34 3.862 7.995 3.1 7.98-1.726V.538h-2.764v18.351c.001.867-.485 1.352-.947 1.498-.566.18-1.18-.06-1.563-.608v-.002l-.003-.002c-.079-.125-7.572-12.126-9.446-15.191-.155-.221-.383-.312-.584-.248-.21.067-.343.289-.343.635v13.914c.002.87-.475 1.354-.937 1.503-.557.175-1.163-.066-1.543-.613v-.002a1642.245 1642.245 0 0 1-9.449-15.195c-.155-.22-.385-.31-.587-.245-.212.068-.346.29-.345.633v13.83c0 .888-.727 1.612-1.616 1.612h-6.678c-3.038 0-5.263-1.104-6.722-2.722-1.46-1.618-2.156-3.745-2.157-5.795-.002-2.127.734-4.268 2.18-5.88C6.803 4.398 8.96 3.317 11.78 3.314h4.05V.538h-3.548.001Z"/></g><defs><clipPath id="a"><path fill="#fff" d="M.43.453h51.123V24.67H.43z"/></clipPath></defs></svg>