<svg xmlns="http://www.w3.org/2000/svg" width="69" height="19" fill="none"><g clip-path="url(#a)"><mask id="b" width="69" height="19" x="0" y="0" maskUnits="userSpaceOnUse" style="mask-type:luminance"><path fill="#fff" d="M.328.592h68.164V18.53H.328V.592Z"/></mask><g mask="url(#b)"><path fill="#fff" d="M6.89 2.264h1.492a5.008 5.008 0 0 1 2.686.341 4.775 4.775 0 0 1 2.148 2.883c.223.631.223.631.76.407h.419v-5H.342v.882h.575a1.67 1.67 0 0 1 1.31.618c.538.869.629 1.843.629 6.91 0 5.382-.117 6.698-.628 7.369a1.419 1.419 0 0 1-1.088.58c-.798.144-.798.13-.798.486a.53.53 0 0 0 0 .368h8.865a.832.832 0 0 0 0-.75 4.492 4.492 0 0 0-.654-.131 4.354 4.354 0 0 1-.707-.145 2.367 2.367 0 0 1-.956-2.145c-.131-.868-.198-2.461-.198-3.777v-1.04h.525a7.043 7.043 0 0 1 1.938.21 2.428 2.428 0 0 1 1.127 1.738l.117.408h.8v-5.83h-.734l-.117.565a2.35 2.35 0 0 1-1.193 1.738c-.31.092-.636.115-.956.066H6.692V7.593c0-1.474.08-4.58.132-5.067l.067-.262ZM68.19 12.7a4.757 4.757 0 0 0-2.71-2.067 6.541 6.541 0 0 1-2.345-1.315 1.318 1.318 0 0 1-.38-1.172c0-.414.165-.812.458-1.106a1.584 1.584 0 0 1 1.572-.434 3.317 3.317 0 0 1 2.319 2.474c.21.592.235.592.615.435l.236-.092V6.145l-.17-.079a10.08 10.08 0 0 0-4.021-.552c-1.176.03-2.297.5-3.144 1.316a3.632 3.632 0 0 0-1.14 2.843c.007.807.327 1.582.89 2.158a5.313 5.313 0 0 0 2.228 1.316c2.03.803 2.618 1.316 2.618 2.25.01.394-.115.78-.353 1.093a1.72 1.72 0 0 1-.956.632 3.219 3.219 0 0 1-1.388 0 4.06 4.06 0 0 1-2.45-2.777l-.17-.422h-.235a1.075 1.075 0 0 0-.328.08h-.131v3.737h.223c.884.296 1.797.5 2.724.606h1.31a5.11 5.11 0 0 0 1.69-.159c.7-.13 1.353-.44 1.894-.902a4.093 4.093 0 0 0 1.197-1.73c.157-.374.236-.777.236-1.183a3.291 3.291 0 0 0-.288-1.672ZM55.853 5.895a6.013 6.013 0 0 0-4.938.119 5.784 5.784 0 0 0-3 3.594 7.057 7.057 0 0 0-.354 2.63c-.009.486.03.971.119 1.448a5.852 5.852 0 0 0 1.616 3.096 5.807 5.807 0 0 0 3.085 1.616 9.075 9.075 0 0 0 2.293 0 6.27 6.27 0 0 0 2.227-.856 3.937 3.937 0 0 0 1.388-1.316.66.66 0 0 0-.314-.408c-.15.054-.29.13-.42.225-.65.43-1.42.647-2.2.618a3.482 3.482 0 0 1-2.79-1.105 3.147 3.147 0 0 1-.668-.895 6.144 6.144 0 0 1-.641-2.633v-.513h7.255v-.263a6.455 6.455 0 0 0 0-.789 5.283 5.283 0 0 0-.716-2.644 5.251 5.251 0 0 0-1.942-1.924Zm-3.655 4.555h-.916v-.777c.3-1.988 1.047-3.172 1.964-3.172s1.31 1.17 1.48 3.316v.606h-.785l-1.743.027ZM33.362 5.46a2.74 2.74 0 0 0-1.309.276 4.399 4.399 0 0 0-2.03 2.04l-.171.316V5.461h-.065c-.158 0-5.005.974-5.161 1.04-.158.066-.105.078-.105.316 0 .237 0 .276.105.289l.511.106a.94.94 0 0 1 .733.38c.327.436.393 1.2.393 4.45.064 1.463.003 2.929-.183 4.382a1.08 1.08 0 0 1-.904.855l-.446.093h-.17v.367a.53.53 0 0 0 0 .383h7.322v-.382a.946.946 0 0 0 0-.382 7.293 7.293 0 0 1-1.31-.17 1.312 1.312 0 0 1-.694-1.317c-.105-.763-.157-3-.13-4.711.025-1.711 0-1.816.143-1.935a2.35 2.35 0 0 1 1.533-.487 3.41 3.41 0 0 1 1.493.381c.16.09.332.157.51.198 0 0 1.31-3.184 1.31-3.33a1.546 1.546 0 0 0-1.375-.526Zm-8.829 5.528a5.932 5.932 0 0 0-.783-2.671 5.898 5.898 0 0 0-1.914-2.015 6.786 6.786 0 0 0-6.13-.17 5.942 5.942 0 0 0-2.869 3.421 8.832 8.832 0 0 0 0 5.053c.258.9.74 1.72 1.402 2.383a5.309 5.309 0 0 0 3.025 1.474c.733.062 1.469.062 2.201 0a6.96 6.96 0 0 0 .798-.171 5.825 5.825 0 0 0 2.766-1.726 5.868 5.868 0 0 0 1.413-2.946c.13-.87.161-1.754.091-2.632Zm-5.448 6.58c-1.31.395-2.293-.882-2.62-3.567a24.768 24.768 0 0 1 0-4.224c.262-2.158.93-3.25 1.965-3.25a1.305 1.305 0 0 1 1.1.486c.878.882 1.31 2.632 1.31 5.265a9.794 9.794 0 0 1-.682 4.368 1.986 1.986 0 0 1-1.073.856v.066ZM42.66 5.725a4.341 4.341 0 0 0-1.112 0c-.71-.001-1.411.152-2.057.447l-.406.17V3.488c.071-.963.071-1.931 0-2.895-.157 0-5.161.96-5.24 1a.41.41 0 0 0 0 .303c0 .276 0 .263.59.395.166.036.325.098.472.183.255.243.426.561.484.909.149 1.001.197 2.015.144 3.027v11.555l.354.079c.524.118 2.005.367 2.489.421.968.077 1.94.077 2.907 0a5.917 5.917 0 0 0 2.962-1.165 5.959 5.959 0 0 0 1.937-2.534 9.094 9.094 0 0 0 .498-2c.078-.926.047-1.858-.091-2.776a5.076 5.076 0 0 0-1.296-2.755 5.037 5.037 0 0 0-2.635-1.51Zm-3.431 11.62c0-.17-.131-5.935-.105-8.238V7.304l.38-.092c.257-.037.517-.037.773 0 .284-.03.568.036.812.184a3.955 3.955 0 0 1 1.69 3c.095.958.095 1.924 0 2.882a6.346 6.346 0 0 1-1.52 3.778c-.256.245-.58.41-.93.474a2.32 2.32 0 0 1-.798 0c-.25 0-.25-.08-.25-.185h-.052Z"/></g></g><defs><clipPath id="a"><path fill="#fff" d="M.328.593h68.164V18.53H.328z"/></clipPath></defs></svg>