<svg width="76" height="44" viewBox="0 0 76 44" fill="none" xmlns="http://www.w3.org/2000/svg"><g clip-path="url(#clip0_636_12927)"><mask id="mask0_636_12927" style="mask-type:luminance" maskUnits="userSpaceOnUse" x="0" y="2" width="76" height="37"><path d="M0.00976562 2.63867H75.8284V38.8249H0.00976562V2.63867Z" fill="white"/></mask><g mask="url(#mask0_636_12927)"><path fill-rule="evenodd" clip-rule="evenodd" d="M1.00402 30.7312C1.00402 31.7194 0.151064 32.2372 0.151064 32.2372H4.97933C4.78979 32.2372 3.8903 31.3903 3.8903 30.6838V23.9075H7.86734C7.86734 23.9075 9.09767 24.0962 9.09767 24.614V22.1189H3.8903V17.1778H8.95465C9.23897 17.1778 10.2797 17.649 10.3271 18.2608C10.3745 18.8725 10.3271 15.4374 10.3271 15.4374H0.00976562C0.00976562 15.4374 0.956637 16.0017 1.00402 16.9899C1.05055 17.9308 1.00402 29.743 1.00402 30.7312ZM26.7022 15.4382C26.8444 15.4382 27.7913 16.0965 27.7439 16.9908V33.272C27.7439 33.6485 27.27 37.2723 25.0937 38.7775C25.0463 38.8248 27.4122 38.4483 28.9742 36.8958C29.2112 36.6606 30.6776 35.6723 30.6776 32.1899C30.6776 28.4722 30.631 17.979 30.631 16.9434C30.631 15.8147 31.7666 15.4382 31.7666 15.4382H26.7022ZM12.3148 16.9908C12.3622 16.0965 11.5101 15.4382 11.3679 15.4382H16.3849C16.3849 15.4382 15.3441 16.05 15.3441 16.9434V27.2022C15.3441 28.6608 16.1962 30.6838 18.6095 30.6838C20.5497 30.6838 21.4018 28.6608 21.4018 27.2022C21.4018 25.9788 21.3544 17.8851 21.3544 16.9908C21.4018 16.1439 20.5497 15.4382 20.4076 15.4382H25.4245C25.4245 15.4382 24.3837 16.0026 24.3837 16.8495V27.297C24.3837 27.297 24.3364 29.1795 23.2947 30.4029C22.4426 31.3438 21.0701 32.4259 18.7042 32.4733C15.9593 32.5198 14.7289 31.579 13.4977 30.4029C12.6465 29.556 12.4096 27.8613 12.3622 27.2031C12.2674 25.8383 12.3148 17.5551 12.3148 16.9908ZM62.7187 16.9908C62.7661 16.0965 61.914 15.4382 61.7244 15.4382H66.7414C66.7414 15.4382 65.7006 16.05 65.7006 16.9434V27.2022C65.7006 28.6608 66.5518 30.6838 68.966 30.6838C70.9062 30.6838 71.7575 28.6608 71.7575 27.2022C71.7575 25.9788 71.711 17.8851 71.711 16.9908C71.7583 16.1439 70.9062 15.4382 70.7167 15.4382H75.7337C75.7337 15.4382 74.6929 16.0026 74.6929 16.8495V27.297C74.6929 27.297 74.6929 29.1795 73.6038 30.4029C72.7517 31.3438 71.3792 32.4259 69.0134 32.4733C66.2684 32.5198 65.0381 31.579 63.8069 30.4029C62.9556 29.556 62.7187 27.8613 62.6713 27.2031C62.7187 25.8383 62.7187 17.5551 62.7187 16.9908ZM36.7835 30.6838C36.7835 31.5781 37.8717 32.2372 37.9191 32.2372H32.9021C32.9021 32.2372 33.9438 31.6255 33.9438 30.7312V17.0373C33.9912 16.1904 33.0908 15.4848 32.9021 15.4848H37.9191C37.9191 15.4848 36.7835 16.1439 36.7835 16.9908V30.6838ZM42.8887 17.2734V30.7777C42.8887 31.6712 41.8479 32.2364 41.8479 32.2364H46.864C46.8166 32.2364 45.8232 31.5773 45.8232 30.683C45.8232 30.166 45.8706 17.3199 45.8706 17.3199C45.8706 17.2251 47.7635 17.2251 48.3312 17.2251C48.7103 17.2251 49.5142 17.4604 49.6563 18.4012C49.7037 18.6838 50.698 15.4374 50.698 15.4374H38.9607L37.9665 18.6838C37.9665 18.6838 39.1503 17.2251 39.7181 17.2251C40.4754 17.2725 42.8887 17.2734 42.8887 17.2734ZM51.3132 32.1899L50.4137 28.99C50.4137 28.99 51.8335 30.6373 54.3425 30.7777C56.8496 30.919 57.6078 29.6956 57.8439 29.4604C58.0808 29.2252 59.4059 27.5305 57.37 26.2605C55.1937 24.9431 53.2534 24.1901 52.3539 23.4371C51.5018 22.6841 50.2241 21.085 50.7445 18.7786C51.2658 16.473 53.7738 15.4848 54.8155 15.2969C55.8562 15.1556 58.6486 15.1556 59.7368 15.5787C59.8316 15.72 59.7368 18.1203 59.7368 18.1203C59.6894 18.2616 59.3112 16.9434 56.7557 16.8969C54.152 16.8495 53.7747 18.5907 53.7264 18.732C53.679 18.8733 52.9691 20.6611 55.0041 21.6959C57.0392 22.7315 59.0742 23.3906 60.5415 25.2257C62.2457 27.3426 60.731 30.0721 60.2572 30.5899C59.5481 31.3895 57.5131 32.5664 55.2885 32.5664C52.2592 32.6138 51.3597 32.2372 51.3132 32.1899ZM40.0015 7.24982C40.0963 9.17975 38.8186 11.9557 35.3163 12.0023C32.7608 12.0497 31.4823 10.0732 31.1979 9.74408C30.9145 9.41496 30.2993 8.19152 28.6908 8.14413C27.1287 8.09675 26.4188 9.5554 26.3714 10.3084C26.324 11.0614 26.6557 12.8501 28.7373 12.8966C30.631 12.944 31.577 10.9201 31.577 10.9201V13.0379C31.577 13.0379 30.5836 14.2139 28.7855 14.2613C26.9866 14.3087 24.8567 12.8027 24.9515 10.2145C25.0463 7.62633 27.6483 6.68549 28.8803 6.73287C30.1098 6.7794 31.1514 7.34459 32.0509 8.61455C32.9495 9.83799 34.1807 10.8736 35.9314 10.4971C36.9722 10.3084 38.5816 9.46148 38.5816 7.20329C38.5816 4.94424 36.2158 4.09731 35.3163 4.09731C34.7011 4.09731 33.8964 4.28514 32.9969 5.13293C32.0983 6.02638 31.6718 7.34459 31.6718 7.34459V4.52121C31.6718 4.52121 33.0917 2.63866 35.2224 2.63866C37.3048 2.59128 39.8594 4.28514 40.0015 7.24982Z" fill="white"/></g></g><defs><clipPath id="clip0_636_12927"><rect width="75.8187" height="43.0788" fill="white" transform="translate(0.00976562 0.312012)"/></clipPath></defs></svg>
