<svg width="310" height="207" xmlns="http://www.w3.org/2000/svg"><g transform="translate(-62 -11)" fill="none" fill-rule="evenodd"><g opacity=".4" stroke="#139FF0" stroke-width="1.315"><path d="M305.557 212.18l-32.076-22.936" stroke-linecap="square"/><path d="M324 168.765l-38.917-9.744m37.313-43.416l-36.501 7.286m19.975-54.398l-35.28 23.27m-31.277-19.66l20.536-38.098"/><path d="M81.443 212.18l32.076-22.936" stroke-linecap="square"/><path d="M63 168.765l38.917-9.744m-37.313-43.416l36.501 7.286M81.13 68.493l35.28 23.27m31.277-19.66L127.15 34.005"/><path d="M197 61.188V23.812" stroke-linecap="square"/></g><path d="M201.288 85.263c2.87-1.663 7.526-1.66 10.39 0l48.593 28.153c2.87 1.662 5.196 5.69 5.196 9.015v56.337c0 3.316-2.33 7.355-5.196 9.015l-48.592 28.153c-2.87 1.663-7.526 1.66-10.391 0l-48.592-28.153c-2.87-1.662-5.196-5.69-5.196-9.015V122.43c0-3.316 2.33-7.355 5.196-9.015l48.592-28.153z" fill="#DBF4FF"/><path d="M188.352 75.7l-48.592 28.152c-2.52 1.46-4.635 5.129-4.635 8.043v56.336c0 2.921 2.11 6.579 4.635 8.042l48.592 28.153c2.518 1.459 6.744 1.46 9.263 0l48.592-28.153c2.52-1.46 4.635-5.129 4.635-8.042v-56.336c0-2.922-2.11-6.58-4.635-8.043L197.615 75.7c-2.518-1.459-6.744-1.46-9.263 0z" stroke="#139FF0" stroke-width="2.25"/><g stroke="#139FF0" stroke-width="2.25"><path d="M180.31 124.107l1.691 7.466h-9.177l14.35 13.59-3.03 17.12 17.575-17.32 4.133-13.689 12.235-7.972-15.676.034-6.67 7.623-15.432-6.852z"/><path d="M202.412 123.85l3.35 6.725m-10.683 1.043l-8.306 13.53m18.665-13.65h-23.457m10.377 21.496l-5.585-7.846" stroke-linecap="square"/></g><ellipse fill="#88CFF8" cx="137.04" cy="15.719" rx="3.813" ry="3.806"/><ellipse fill="#88CFF8" cx="277.181" cy="205.556" rx="3.813" ry="3.806"/><ellipse fill="#88CFF8" cx="75.531" cy="40.86" rx="3.813" ry="3.806"/><ellipse fill="#88CFF8" cx="67.941" cy="179.847" rx="5.719" ry="5.708"/><ellipse fill="#88CFF8" cx="334.807" cy="56.164" rx="3.813" ry="3.806"/><ellipse fill="#88CFF8" opacity=".499" cx="298.585" cy="29.039" rx="5.719" ry="5.708"/><ellipse fill="#88CFF8" cx="366.281" cy="104.625" rx="5.719" ry="5.708"/></g></svg>