<svg width="96" height="96" xmlns="http://www.w3.org/2000/svg"><g fill="none" fill-rule="evenodd"><path d="M24.258 22.323a2.58 2.58 0 1 0-4.594-2.065h-.567a3.613 3.613 0 1 0 0 7.226h1.032a3.7 3.7 0 0 0 .56-.043c.153.028.311.043.472.043h4.13a2.58 2.58 0 0 0 0-5.161h-1.033zm20.393 6.193a4.645 4.645 0 0 1 8.998-2.065h.545a5.677 5.677 0 0 1 0 11.355h-3.097c-.371 0-.734-.035-1.085-.103a4.663 4.663 0 0 1-.98.103H42.84a4.645 4.645 0 1 1 0-9.29h1.812z" fill-opacity=".2" fill="#129FF0"/><path d="M16.516 82.194H86.57a2 2 0 0 0 1.79-2.895L64.483 31.55a2 2 0 0 0-3.437-.238L40.462 61.264" stroke="#129FF0" stroke-width="1.5"/><path d="M46.452 51.226l-8.718-8.718a2 2 0 0 0-2.995.19l-28.11 36.27a2 2 0 0 0 1.58 3.226h8.176" stroke="#129FF0" stroke-width="1.5"/><path d="M37.78 67.078l-3.303 4.424m28.491-41.29V14.581m0 9.806V12h17.548l-6.96 5.404a1 1 0 0 0 0 1.58l6.96 5.403H62.968zM.516 82.71H95.49" stroke="#129FF0" stroke-width="1.5" stroke-linecap="square"/><path stroke="#129FF0" stroke-width="1.5" fill-opacity=".2" fill="#129FF0" d="M70.194 45.032l-7.226-15.484-9.29 13.42 3.096 3.097 3.097-4.13 3.097 5.162 4.129-6.194zm-34.065-3.097l-8.258 9.29 7.226-3.096 3.097 3.097 4.129-4.645z"/></g></svg>