<svg xmlns="http://www.w3.org/2000/svg" width="161" height="23" fill="none"><g clip-path="url(#a)"><mask id="b" width="161" height="23" x="0" y="0" maskUnits="userSpaceOnUse" style="mask-type:luminance"><path fill="#fff" d="M.766.322h159.942v22.479H.766V.322Z"/></mask><g mask="url(#b)"><path fill="#fff" d="M12.783 3.174c0-1.729-1.643-2.247-2.94-2.161v.26c.778 0 1.47.259 1.47.864 0 .346-.26.864-1.037.864-.605 0-1.902-.345-2.853-.691-1.21-.432-2.248-.778-3.113-.778-1.729 0-2.94 1.297-2.94 2.853 0 1.297.952 1.729 1.384 1.902l.087-.173c-.346-.26-.606-.432-.606-.951 0-.346.346-.951 1.21-.951.779 0 1.816.346 3.2.778 1.21.346 2.507.605 3.198.692v2.68L8.547 9.486v.086l1.296 1.124v3.718c-.691.432-1.47.518-2.16.518-1.298 0-2.422-.346-3.373-1.383l3.545-1.73V5.942l-4.41 1.902C3.879 6.719 4.83 5.94 5.78 5.336l-.086-.173C3.1 5.854.766 8.275.766 11.215c0 3.544 2.853 6.138 6.138 6.138 3.545 0 5.793-2.767 5.706-5.706h-.173c-.519 1.124-1.297 2.161-2.248 2.767v-3.632l1.383-1.124v-.086L10.19 8.448V5.682c1.21 0 2.594-.865 2.594-2.508Zm-7.608 9.683-1.038.433c-.605-.778-.95-1.816-.95-3.286 0-.605.086-1.383.259-1.902l1.815-.778-.086 5.533Zm9.25 1.902-1.123.865.173.173.518-.433 1.989 1.816 2.593-1.729-.086-.173-.692.432-.864-.864V8.88l.691-.518 1.47 1.21v5.274c0 3.285-.692 3.804-2.248 4.409v.26c2.421.086 4.669-.692 4.669-4.929V8.794l.778-.605-.173-.173-.605.519-2.162-1.816-2.507 1.902V1.359h-.173l-3.112 2.075v.173c.346.173.865.345.865 1.383v9.77Zm15.908-.95-2.161 1.642-2.248-1.73v-1.037l4.15-2.766V9.83L27.999 6.72l-4.496 2.42v5.707l-.864.691.173.173.778-.605 2.94 2.162 3.89-3.113-.087-.346Zm-4.322-1.47V8.102l.172-.086 1.902 3.026-2.074 1.297Zm20.922-9.943c0-.26-.087-.518-.173-.778h-.173c-.26.692-.605 1.124-1.47 1.124-.778 0-1.297-.432-1.642-.778l-2.508 2.853.173.173.692-.778c.519.432.95.778 2.161.864v7.263L38.98 3.434c-.432-.692-1.038-1.643-2.248-1.643-1.383 0-2.594 1.21-2.42 3.199h.172c.087-.519.346-1.124.951-1.124.519 0 .951.432 1.124.865v2.853c-1.556 0-2.593.691-2.593 1.988 0 .692.345 1.816 1.47 1.989v-.173a.785.785 0 0 1-.26-.606c0-.518.346-.778.95-.778h.433v3.718c-1.816 0-3.285 1.037-3.285 2.766 0 1.643 1.47 2.421 2.94 2.335v-.173c-.952-.087-1.47-.519-1.47-1.124 0-.778.518-1.124 1.21-1.124s1.297.432 1.729.951l2.507-2.767-.173-.172-.605.605c-.95-.865-1.47-1.124-2.593-1.297V4.99l7.002 12.19h.52V4.99c1.382-.087 2.593-1.038 2.593-2.594Zm6.311 11.412-2.161 1.643-2.248-1.73v-1.037l4.15-2.766V9.83L50.91 6.72l-4.496 2.42v5.707l-.864.691.172.173.779-.605 2.939 2.162 3.89-3.113-.086-.346Zm-4.323-1.47V8.103l.173-.086 1.902 3.026-2.075 1.297ZM67.51 7.585l-.692.518-1.642-1.383-1.902 1.73.778.777v6.57l-2.075-1.382v-5.36l.692-.52-1.989-1.901-1.902 1.729.778.778v6.224l-.26.173-1.815-1.296V8.967c0-1.21-.605-1.556-1.383-1.989-.605-.432-.951-.691-.951-1.296 0-.52.519-.779.778-.951v-.173c-.692 0-2.507.691-2.507 2.42 0 .865.432 1.21.864 1.643.433.432.865.778.865 1.556v5.015l-1.124.691.173.173.864-.692 2.335 1.816 2.161-1.47 2.421 1.47 4.582-2.68V8.621l1.124-.865-.173-.172Zm16.08-4.755-.864.778-1.988-1.73-2.853 2.075V2.05h-.26l.087 14.093c-.26 0-1.038-.173-1.643-.346l-.086-11.758c0-.865-.606-2.075-2.162-2.075s-2.593 1.21-2.593 2.42h.259c.087-.518.346-.95.865-.95.518 0 .95.346.95 1.47v3.371c-1.642.173-2.507 1.038-2.507 2.075 0 .692.346 1.73 1.47 1.816v-.173c-.346-.173-.432-.433-.432-.605 0-.52.519-.692 1.124-.692h.346v5.36c-1.297.432-1.816 1.383-1.816 2.42 0 1.47 1.124 2.508 2.853 2.508 1.21 0 2.248-.173 3.372-.432.864-.173 1.988-.432 2.507-.432.692 0 .951.345.951.778 0 .605-.26.864-.605.95v.174c1.47-.26 2.248-1.124 2.248-2.421 0-1.297-1.297-2.075-2.68-2.075-.692 0-2.162.26-3.2.519-1.21.259-2.42.432-2.766.432-.605 0-1.383-.26-1.383-1.124 0-.692.605-1.297 2.075-1.297.778 0 1.729.087 2.68.346 1.037.26 1.988.519 2.94.519 1.296 0 2.42-.433 2.42-2.335V3.866l1.038-.865-.346-.172Zm-3.544 5.36c-.26.26-.605.518-1.037.518-.52 0-.865-.259-1.038-.518v-3.89l.865-.606 1.21 1.124v3.372Zm0 2.593c-.173-.172-.605-.432-1.037-.432-.433 0-.865.26-1.038.432V8.535c.173.172.605.432 1.038.432.432 0 .864-.26 1.037-.432v2.247Zm0 4.064c0 .691-.519 1.383-1.383 1.383h-.692v-5.1c.173-.174.605-.52 1.038-.52.432 0 .778.26 1.037.52v3.717ZM91.89 8.707 89.037 6.72 84.8 9.139v5.707l-.864.691.086.173.692-.518 2.766 2.075 4.323-2.594V8.707h.087Zm-4.582 5.447V7.93l2.162 1.557v6.224l-2.162-1.556Zm12.882-7.262h-.173c-.26.173-.518.346-.778.346-.346 0-.778-.173-.95-.433h-.174l-1.47 1.643-1.47-1.643-2.593 1.816.087.173.691-.432.865.95v5.447l-1.124.865.173.173.519-.433 2.074 1.816 2.68-1.816-.086-.172-.778.432-1.038-.951V8.62c.433.519.951.865 1.557.865 1.21 0 1.902-1.297 1.988-2.594Zm10.461 8.386-2.939 1.989-3.977-6.052 2.853-4.41h.173c.346.346.951.692 1.47.692.605 0 1.037-.346 1.296-.692h.173c-.086 1.73-1.297 2.767-2.161 2.767-.951 0-1.383-.432-1.816-.692l-.259.433 4.323 6.397.864-.518v.086Zm-9.51-.519-1.124.865.173.173.519-.433 1.988 1.816 2.594-1.729-.173-.173-.691.432-.865-.864V1.359h-.173l-3.199 2.161v.173c.346.173.865.26.865 1.297v9.77h.086Zm23.948-11.585c0-1.729-1.642-2.247-2.939-2.161v.26c.778 0 1.47.259 1.47.864 0 .346-.26.864-1.038.864-.605 0-1.902-.345-2.853-.691-1.124-.346-2.161-.692-3.026-.692-1.729 0-2.939 1.297-2.939 2.853 0 1.297.951 1.73 1.383 1.902l.086-.173c-.259-.173-.518-.346-.518-.864 0-.346.346-.951 1.21-.951.778 0 1.816.346 3.199.778 1.21.346 2.507.605 3.199.691v2.68l-1.297 1.124v.087l1.297 1.124v3.717c-.692.433-1.47.52-2.162.52-1.296 0-2.42-.347-3.371-1.384l3.544-1.73V5.942l-4.409 1.988c.432-1.124 1.383-1.902 2.334-2.507l-.086-.173c-2.594.692-4.928 3.113-4.928 6.052 0 3.545 2.853 6.138 6.138 6.138 3.545 0 5.793-2.766 5.706-5.706h-.173c-.518 1.124-1.296 2.162-2.247 2.767v-3.631l1.383-1.124v-.087l-1.383-1.123V5.682c1.037 0 2.42-.865 2.42-2.508Zm-7.521 9.683-1.038.52c-.605-.779-.951-1.817-.951-3.286 0-.605.087-1.384.26-1.902l1.815-.778-.086 5.446Zm10.461-10.46h-.087l-1.729 1.469v.086l1.47 1.643h.173l1.729-1.47V4.04l-1.556-1.643Zm2.68 12.881-.692.432-.864-.864V8.794l.864-.605-.173-.173-.605.519-1.47-1.816-2.507 1.73.173.258.605-.432.778.951v5.62l-1.123.864.086.173.605-.432 1.902 1.73 2.594-1.73-.173-.173Zm14.524-.173-.605.432-.951-.864v-5.88l.865-.69-.173-.174-.778.606-1.902-1.816-2.594 1.816-1.988-1.816-2.508 1.816-1.556-1.816-2.507 1.73.086.258.606-.432.864.951v5.62l-.691.691 1.988 1.643 1.902-1.729-.778-.778v-5.88l.778-.518 1.383 1.21v5.274l-.691.692 1.988 1.643 1.902-1.73-.778-.778V8.794l.692-.432 1.469 1.21v5.187l-.605.605 1.989 1.816 2.68-1.816-.087-.259Zm7.522-1.297-2.161 1.643-2.248-1.73v-1.037l4.15-2.766V9.83L150.42 6.72l-4.496 2.42v5.88l3.026 2.161 3.89-3.112-.086-.26Zm-4.323-1.47V8.103l.173-.086 1.902 3.026-2.075 1.297Zm12.277-.777-1.643-1.297c1.124-.951 1.556-2.248 1.556-3.2v-.518h-.172c-.173.432-.519.865-1.211.865-.691 0-1.124-.346-1.556-.865l-3.891 2.161v3.2l1.47 1.123c-1.47 1.297-1.729 2.248-1.729 2.853 0 .865.432 1.47 1.124 1.816l.086-.173c-.172-.173-.345-.26-.345-.692 0-.26.345-.691 1.037-.691.865 0 1.383.605 1.643.864l3.804-2.248V11.56h-.173Zm-.951-2.594c-.605 1.037-1.902 2.075-2.68 2.593l-.951-.778V7.756c.346.865 1.297 1.557 2.248 1.557.605 0 .951-.087 1.383-.346Zm-1.47 6.916c-.432-.95-1.47-1.642-2.507-1.642-.259 0-.951 0-1.643.432.433-.692 1.556-1.902 3.026-2.767l1.038.865v3.112h.086Z"/></g></g><defs><clipPath id="a"><path fill="#fff" d="M.766.322h159.942V22.8H.766z"/></clipPath></defs></svg>