<svg xmlns="http://www.w3.org/2000/svg" width="161" height="15" fill="none"><g clip-path="url(#a)"><mask id="b" width="160" height="15" x="0" y="0" maskUnits="userSpaceOnUse" style="mask-type:luminance"><path fill="#fff" d="M.262.695h159.442v13.511H.262V.696Z"/></mask><g mask="url(#b)"><path fill="#fff" d="M158.854 12.35c-.464 0-.851.387-.851.91 0 .521.387.907.851.907.464 0 .85-.386.85-.908s-.386-.909-.85-.909Zm-30.771 1.76h3.904v-.348l-.425-.097c-.387-.097-.561-.31-.561-.85V7.556h.908c.561 0 .851.135.89 1.315l.096 2.473c.078 2.223.716 2.842 1.798 2.842 1.101 0 1.391-.754 1.391-1.817v-.445h-.406v.328c0 .716-.096 1.219-.367 1.219-.251 0-.27-.194-.328-1.083l-.116-1.7c-.155-2.282-.445-3.074-2.126-3.384 1.604-.425 2.59-1.603 2.59-3.285 0-2.185-1.72-3.229-3.363-3.229h-6.592v.349l.368.077c.695.154.715.522.715 2.088v7.692c0 1.72-.483 2.552-1.585 2.552-.986 0-1.527-.484-1.527-2.359V2.048c0-.54.174-.695.599-.792l.522-.116V.792h-4.039v.348l.424.116c.387.115.522.27.522.812v8.987c0 2.03 1.179 3.151 2.977 3.151 1.797 0 2.687-1.121 2.687-3.209V2.608c0-1.043.212-1.41 1.062-1.41.677 0 .967.232.967.87v10.745c0 .541-.174.735-.56.832l-.425.116v.348Zm25.938-12.041c0-.542.175-.715.561-.793l.522-.116V.79h-4.021v.349l.426.116c.387.115.561.27.561.812v10.824c0 .522-.213.812-.812.812-.697 0-.793-.232-1.044-1.373L147.74.753h-.774l-2.357 11.211c-.271 1.256-.406 1.546-.928 1.7l-.329.098v.347h2.764v-.347l-.406-.078c-.58-.116-.734-.425-.444-1.894l1.392-7.17 1.526 7.595c.233 1.102.213 1.315-.618 1.47l-.406.077v.347h10.244V9.703h-.367c-.194 2.03-.599 3.943-2.242 3.943h-.774V2.07Zm-6.03 8.446v-.522h-2.61l-.076.522h2.686ZM137.206 2.3v9.238c0 1.392 0 2.05-.696 2.165l-.348.058v.348h2.841v-.348c-1.237-.173-1.237-.599-1.237-2.106V2.88l-.463-.426 4.735 11.655h.812V3.363c0-1.585 0-1.933.773-2.146l.27-.077V.792h-2.919v.348l.329.077c.986.174.986.56.986 2.03v6.726l.194-.058-3.595-9.123h-2.765v.348l.271.077c.309.097.483.445.812 1.083Zm-6.205-1.045h.774c.773 0 1.488.502 1.488 3.015 0 2.57-.542 2.822-1.624 2.822h-.638V1.256Zm-12.873 6.07c0 5.585-.464 6.378-1.469 6.378-1.005 0-1.45-.793-1.45-6.34 0-5.374.484-6.147 1.45-6.147 1.005 0 1.469.774 1.469 6.108Zm2.107.115c0-3.692-1.179-6.746-3.576-6.746-2.416 0-3.557 3.054-3.557 6.746 0 3.711 1.18 6.765 3.557 6.765 2.456 0 3.576-3.054 3.576-6.765Zm-8.273-5.372c0-.542.136-.715.522-.812l.425-.117V.792h-4v.348l.483.116c.386.097.599.232.599.792v9.297c0 1.295-.116 2.34-1.082 2.34-.619 0-1.083-.484-1.063-.832.057-.6 1.063-.56 1.14-1.527.058-.696-.387-.986-.793-1.044-.599-.077-1.333.425-1.353 1.43-.02 1.296.831 2.475 2.281 2.475 1.605 0 2.841-1.083 2.841-3.151V2.068Zm-64.557 0c0-.542.173-.715.56-.793l.522-.116V.79h-4.02v.349l.425.116c.386.115.56.27.56.812v10.824c0 .522-.212.812-.812.812-.695 0-.812-.232-1.063-1.373L41.104.753h-.773l-2.358 11.211c-.27 1.256-.407 1.546-.928 1.7l-.328.098v.347h2.763v-.347l-.405-.078c-.58-.116-.736-.425-.445-1.894l1.392-7.21 1.526 7.635c.213 1.102.213 1.315-.618 1.47l-.406.077v.347h10.264V9.703h-.368c-.193 2.03-.598 3.943-2.242 3.943h-.773V2.07Zm53.81-.813h.425c1.199 0 1.605 1.913 1.741 3.942h.366V.792h-7.016V5.2h.368c.135-2.03.54-3.943 1.739-3.943h.426v11.556c0 .541-.174.735-.561.832l-.502.116v.347h4.175v-.347l-.6-.136c-.367-.097-.561-.212-.561-.812V1.256Zm-8.833 6.166.6.019c.869.02 1.12.347 1.295 2.455h.367V4.522h-.367C94.064 6.204 93.832 6.92 93 6.938l-.619.02V1.256h1.334c1.488 0 1.817 1.874 2.03 3.942h.367V.792h-6.669v.348l.426.116c.444.115.56.387.56.831v10.726c0 .541-.173.735-.56.832l-.426.116v.347h6.862V9.703h-.367c-.232 2.01-.484 3.943-2.223 3.943h-1.334V7.422Zm-7.287 0 .6.019c.87.02 1.12.347 1.295 2.455h.367V4.522h-.367c-.213 1.682-.444 2.397-1.276 2.416l-.619.02V1.256h1.334c1.488 0 1.817 1.913 2.03 3.942h.367V.792h-6.862v.348l.619.116c.444.115.56.387.56.831v10.726c0 .541-.174.735-.56.832l-.426.116v.347h6.862V9.703h-.367c-.232 2.01-.484 3.943-2.223 3.943h-1.334V7.422Zm-7.944-6.166h.58c.773 0 1.489.502 1.489 3.015 0 2.532-.541 2.822-1.624 2.822h-.444l-.001-5.837Zm-2.918 12.853h3.904v-.347l-.425-.097c-.387-.097-.561-.31-.561-.85V7.556h.716c.56 0 .85.232.888 1.315l.097 2.473c.078 2.223.715 2.842 1.798 2.842 1.102 0 1.392-.754 1.392-1.817v-.445h-.407v.328c0 .716-.096 1.219-.366 1.219-.252 0-.271-.194-.33-1.083l-.116-1.7c-.154-2.34-.463-3.074-2.125-3.384 1.604-.425 2.59-1.603 2.59-3.285 0-2.185-1.72-3.229-3.363-3.229h-3.692v.349l.425.116c.387.115.56.27.56.812v10.745c0 .541-.173.735-.56.832l-.425.116v.348ZM71.276 1.256h.425c1.198 0 1.604 1.913 1.74 3.942h.366V.792h-7.016V5.2h.367c.135-2.03.542-3.943 1.74-3.943h.425v11.556c0 .541-.174.735-.56.832l-.503.116v.347h4.078v-.347l-.502-.116c-.502-.116-.56-.503-.56-.832V1.256ZM66.81 10.65c0-3.963-4.349-5.007-4.349-7.887 0-.618.232-1.546 1.199-1.546 1.392 0 1.914 1.798 2.145 3.982h.368V.791h-.232c-.097.426-.27.62-.522.62-.444 0-.677-.696-1.74-.696-1.642 0-2.764 1.372-2.764 3.17 0 3.266 4.349 4.639 4.349 7.653 0 1.373-.638 2.146-1.507 2.146-1.295 0-2.146-1.527-2.378-3.982h-.366v4.407h.232c.193-.638.444-.695.657-.695.367 0 .753.773 1.874.773 1.72 0 3.034-1.489 3.034-3.537ZM54.15 2.068c0-.541.174-.715.56-.793l.523-.116V.791h-4.021v.349l.426.116c.386.115.56.27.56.812v10.745c0 .541-.174.735-.56.832l-.426.116v.347h6.32V9.703h-.367c-.193 2.03-.599 3.943-2.242 3.943h-.773V2.068Zm-12.796 8.446v-.522h-2.609l-.078.522h2.687Zm-11.171 3.634h.792l1.797-9.51h-.27l1.971 9.51h.697l2.358-11.21c.25-1.18.386-1.585.85-1.701l.367-.097V.792H36.02v.348l.406.077c.58.116.715.464.444 1.894l-1.527 7.52h.232l-1.546-7.926c-.155-.753-.25-1.372.387-1.488l.425-.077V.792H31.11v.348l.251.058c.388.097.444.329.6 1.063l.6 2.88-.117-1.74-1.333 7.036h.174l-1.566-7.73c-.175-.794-.233-1.393.386-1.51l.29-.057V.792h-3.808v.348l.367.097c.348.097.542.27.774 1.333l2.454 11.578ZM19.86 7.422l.599.019c.87.02 1.121.347 1.295 2.455h.367V4.522h-.367c-.213 1.682-.444 2.397-1.276 2.416l-.618.02V1.256h1.333c1.49 0 1.818 1.913 2.03 3.942h.367V.792h-6.668v.348l.425.116c.444.115.56.387.56.831v10.726c0 .541-.173.735-.56.832l-.425.116v.347h6.862V9.703h-.367c-.232 2.01-.484 3.943-2.224 3.943h-1.333V7.422ZM7.702 14.109h3.963v-.347l-.445-.097c-.347-.077-.58-.31-.58-.85V7.537h2.92v5.275c0 .541-.233.774-.58.85l-.445.098v.347h3.962v-.347l-.425-.116c-.387-.097-.561-.31-.561-.851V2.069c0-.542.174-.715.56-.812l.426-.117V.792h-3.962v.348l.444.116c.329.097.58.232.58.792v4.968H10.64V2.048c0-.542.213-.695.58-.792l.445-.116V.792H7.703v.348l.426.116c.386.115.56.27.56.812v10.745c0 .541-.174.735-.56.832l-.426.116v.348ZM4.746 1.256h.425c1.198 0 1.605 1.913 1.74 3.942h.367V.792H.262V5.2h.367c.135-2.031.542-3.944 1.74-3.944h.425v11.557c0 .541-.174.735-.561.832l-.503.116v.347h4.175v-.347l-.598-.136c-.368-.097-.56-.212-.56-.812V1.256Z"/></g></g><defs><clipPath id="a"><path fill="#fff" d="M.264.694H160.22v13.734H.264z"/></clipPath></defs></svg>