<svg width="96" height="96" xmlns="http://www.w3.org/2000/svg"><g fill="none" fill-rule="evenodd"><g transform="translate(14)"><circle fill="#139FF0" opacity=".2" cx="16.193" cy="17.349" r="6.94"/><path d="M30.42 22.743c-.066-1.101.633-1.497 1.547-.894l9.617 6.35c.92.608.896 1.545-.069 2.102l-8.55 4.936c-.958.554-1.789.102-1.854-.991l-.69-11.503zm2.244-18.827a1.999 1.999 0 0 1 1.705-2.263L44.146.279a1.999 1.999 0 0 1 2.263 1.705l1.374 9.777a1.999 1.999 0 0 1-1.705 2.262L36.3 15.397a1.999 1.999 0 0 1-2.263-1.705l-1.374-9.776z" fill="#139FF0" opacity=".2"/><g transform="translate(0 40.482)"><path d="M60.551 4v47.518a3.25 3.25 0 0 1-3.25 3.25H4a3.25 3.25 0 0 1-3.25-3.25V4A3.25 3.25 0 0 1 4 .75h53.301A3.25 3.25 0 0 1 60.551 4z" stroke="#139FF0" stroke-width="1.5"/><path d="M45.876 16.943a3.25 3.25 0 0 0-2.38 1.036l-6.909 7.425a3.25 3.25 0 0 0-.035 4.39L43.5 37.5a3.25 3.25 0 0 0 2.414 1.074h17.17a3.25 3.25 0 0 0 3.25-3.25V20.193a3.25 3.25 0 0 0-3.25-3.25H45.876z" stroke="#139FF0" stroke-width="1.5"/><circle fill="#139FF0" cx="45.108" cy="27.759" r="2.313"/></g></g><path d="M30.99 18.825a.669.669 0 0 0-.225-.517c-.15-.136-.4-.259-.748-.368-.35-.11-.621-.21-.815-.304-.646-.307-.97-.76-.97-1.362 0-.407.14-.742.42-1.004.28-.263.66-.419 1.14-.468V14h.665v.81c.483.061.856.242 1.119.543.263.3.395.69.395 1.172h-1.006c0-.31-.079-.553-.235-.73-.157-.179-.37-.268-.639-.268-.266 0-.474.064-.623.192-.15.127-.225.31-.225.548 0 .214.074.385.223.513.148.13.4.251.754.367.355.115.634.222.836.32.202.098.373.21.512.337.138.126.245.271.32.436.075.164.112.357.112.578 0 .414-.143.75-.43 1.008-.287.258-.687.41-1.2.456V21h-.661v-.714c-.549-.054-.971-.228-1.266-.523-.295-.294-.443-.684-.443-1.17h1.01c0 .31.088.548.264.718.176.169.425.254.747.254.316 0 .556-.068.721-.203a.66.66 0 0 0 .248-.537z" fill="#139FF0"/></g></svg>