<svg xmlns="http://www.w3.org/2000/svg" width="77" height="29" fill="none"><g clip-path="url(#a)"><mask id="b" width="77" height="29" x="0" y="0" maskUnits="userSpaceOnUse" style="mask-type:luminance"><path fill="#fff" d="M.367.66h75.901v27.803H.368V.659Z"/></mask><g fill="#fff" mask="url(#b)"><path d="M31.678.66c-.007.062-.017.125-.017.188V6.68c0 .054.007.11.011.191.05-.033.09-.051.117-.08 1.157-1.258 2.598-1.511 4.169-1.081 1.507.412 2.278 1.542 2.589 3.012.09.43.136.877.139 1.317.013 2.37.006 4.742.006 7.113 0 .07-.008.138-.012.223h-4.066v-.285c0-1.976.005-3.951-.005-5.928a3.674 3.674 0 0 0-.126-.933c-.146-.538-.515-.864-1.076-.93-.579-.068-1.066.105-1.397.608-.267.405-.332.865-.332 1.338-.002 1.945-.001 3.89-.001 5.833v.296h-4.08V.659h4.08Zm44.591.047c-.043.082-.094.161-.13.248-1.372 3.311-2.745 6.624-4.11 9.939-.08.195-.172.272-.394.27-1.422-.012-2.844-.006-4.266-.006h-.292c.048-.122.079-.209.114-.294 1.371-3.313 2.744-6.625 4.113-9.938.036-.086.054-.178.08-.267 1.565 0 3.13 0 4.696.002.063 0 .127.03.19.046ZM46.761 28.458c-.105-.027-.21-.059-.315-.078-.96-.18-1.658-.712-2.113-1.564-.722-1.357-.566-3.113.399-4.23.776-.9 1.768-1.203 2.925-.937.393.091.732.293 1.012.588.048.05.1.094.197.185.011-.174.032-.296.024-.415-.016-.202.053-.279.267-.274.57.013 1.139.016 1.707 0 .236-.007.313.057.31.302-.01 1.572-.004 3.145-.004 4.718 0 .41-.008.821.002 1.232.005.19-.046.27-.25.265a46.248 46.248 0 0 0-1.78 0c-.206.003-.263-.08-.252-.267.008-.128-.01-.257-.015-.386l-.088-.045c-.059.082-.108.174-.18.243-.36.347-.798.53-1.288.6-.076.012-.15.042-.224.064h-.332l-.002-.001Zm.799-2.116c.785 0 1.399-.601 1.396-1.366-.005-.743-.632-1.355-1.394-1.36a1.375 1.375 0 0 0-1.387 1.38c.002.76.604 1.346 1.385 1.346Zm20.644 2.116c-.27-.051-.542-.09-.81-.155-1.475-.356-2.399-1.517-2.455-3.038-.05-1.385.435-2.497 1.637-3.227 1.503-.913 3.575-.519 4.533.841.53.75.677 1.603.639 2.502-.008.183-.123.169-.243.169h-2.277c-.593 0-1.186 0-1.779.002-.257 0-.278.033-.21.278.16.571.84.936 1.496.76.24-.066.447-.247.673-.367.073-.038.175-.093.237-.07.608.221 1.21.458 1.846.704-.053.087-.09.16-.139.226-.605.829-1.453 1.21-2.448 1.314-.092.01-.182.04-.273.06h-.427Zm-.988-4.22c.11.007.186.015.262.016h1.727c.311 0 .348-.054.214-.344-.208-.448-.598-.608-1.059-.621-.484-.014-.915.247-1.074.638-.036.09-.045.19-.072.312h.002Zm-4.563 4.22c-.16-.034-.319-.074-.48-.1-1.62-.264-2.74-1.542-2.775-3.182-.032-1.41.482-2.54 1.766-3.213.963-.504 1.98-.537 3.01-.183.167.059.233.147.228.328-.01.529-.003 1.058-.004 1.587 0 .07-.01.137-.012.184-.363-.084-.708-.2-1.06-.238-.732-.075-1.393.384-1.539 1.026-.198.87.408 1.625 1.34 1.67.44.023.841-.096 1.238-.325.015.065.032.107.032.15.002.576-.002 1.154.003 1.73.002.142-.053.226-.184.26-.52.117-1.023.346-1.563.306ZM22.273 17.375v-1.017c-.054.032-.083.041-.1.06-.748.867-1.731 1.227-2.839 1.262-2.511.08-4.641-1.475-5.393-3.988-.707-2.364-.353-4.57 1.332-6.42 1.448-1.591 3.272-2.115 5.368-1.49.58.177 1.098.51 1.499.964.029.032.065.057.134.117V5.82h3.922v11.555h-3.922Zm-2.314-3.377c1.35.003 2.398-1.03 2.409-2.374a2.37 2.37 0 0 0-2.4-2.408c-1.355.005-2.397 1.033-2.41 2.377-.011 1.347 1.04 2.4 2.401 2.405ZM.385 5.803h.284c1.297 0 2.592.004 3.889-.005.192 0 .275.06.343.236.809 2.084 1.625 4.166 2.44 6.249.033.087.07.174.127.314.054-.118.09-.19.12-.265.824-2.087 1.65-4.173 2.467-6.263.077-.197.168-.274.39-.272 1.242.013 2.483.006 3.723.006h.293c-.034.1-.055.172-.084.24-2.127 5.13-4.257 10.26-6.38 15.393-.077.189-.167.26-.376.259-1.265-.011-2.53-.006-3.794-.006h-.265c.044-.115.072-.194.105-.272.52-1.23 1.037-2.462 1.565-3.688a.565.565 0 0 0-.005-.492C3.656 13.545 2.092 9.848.526 6.152c-.042-.1-.081-.2-.14-.349H.385Zm64.674 5.802c0 3.208-2.285 5.735-5.49 6.041-2.099.2-3.96-.365-5.374-1.971-1.629-1.85-1.954-4.018-1.11-6.297.825-2.23 2.541-3.442 4.871-3.783a6.383 6.383 0 0 1 3.615.503c2.164.977 3.487 3.074 3.488 5.507Zm-6.137-2.34c-1.291-.044-2.336.944-2.383 2.253-.046 1.314.924 2.384 2.204 2.431 1.342.05 2.4-.92 2.441-2.24.043-1.357-.922-2.4-2.262-2.444Zm-6.965 2.018c-.023 3.735-2.596 6.34-5.975 6.402-1.98.036-3.709-.58-4.991-2.126-1.548-1.864-1.842-4.004-.988-6.237.838-2.192 2.54-3.388 4.84-3.726 1.33-.194 2.628-.021 3.828.602 2.197 1.14 3.22 3.007 3.286 5.085Zm-6.195 2.669c1.314-.001 2.323-1.016 2.324-2.34.002-1.323-1-2.341-2.315-2.348-1.322-.007-2.334 1.013-2.332 2.352.002 1.326 1.008 2.337 2.323 2.336ZM39.183 22.465c.031-.054.055-.113.095-.161 1.02-1.23 3.058-.928 3.648.554.123.31.203.657.21.989.023 1.39.008 2.781.016 4.172 0 .18-.065.23-.237.229a61.688 61.688 0 0 0-1.825 0c-.2.004-.258-.065-.257-.26a222.66 222.66 0 0 0 0-3.175 2.23 2.23 0 0 0-.09-.605c-.102-.35-.369-.529-.724-.547-.34-.016-.64.117-.774.44-.101.246-.155.51-.16.776-.018 1.012-.007 2.024-.007 3.034 0 .223-.115.334-.344.334-.577 0-1.153-.006-1.73.004-.185.002-.248-.056-.248-.244.005-2.008.005-4.015 0-6.021 0-.176.042-.255.24-.251.615.011 1.231.009 1.847 0 .175-.001.246.057.235.232-.008.152-.001.304-.001.456l.106.044Zm15.46-.024c.036-.036.08-.067.11-.107.586-.74 1.368-.895 2.237-.71.863.183 1.355.77 1.562 1.601.066.266.097.546.099.82.01 1.312.001 2.623.01 3.935.001.208-.06.274-.27.27-.56-.013-1.12-.005-1.682-.005-.245 0-.368-.12-.368-.358 0-.971 0-1.943-.002-2.915 0-.174-.009-.347-.03-.52-.056-.474-.36-.773-.795-.795-.43-.02-.795.278-.885.734a2.68 2.68 0 0 0-.049.493c-.004 1.036-.006 2.071.002 3.106.001.194-.055.262-.255.259-.601-.011-1.201-.012-1.801 0-.216.004-.268-.077-.268-.277a936.86 936.86 0 0 0 0-5.95c0-.207.046-.296.277-.29.6.016 1.202.012 1.802.002.189-.004.259.056.243.243-.012.147-.002.296-.002.444l.064.02Zm-22.117-1.863c-.3-.024-.55-.068-.798-.057-.586.025-.903.444-.907 1.033-.002.148.081.186.213.184.388-.003.775.006 1.162-.003.17-.004.243.044.24.226a45.52 45.52 0 0 0-.002 1.421c.003.162-.053.225-.22.22-.372-.008-.744.01-1.114-.006-.223-.01-.286.071-.285.284.006 1.352.003 2.702.002 4.054 0 .31 0 .311-.315.311-.568 0-1.139-.01-1.706.005-.236.007-.29-.077-.287-.3.009-1.334.003-2.67.003-4.005 0-.345 0-.341-.332-.346-.606-.01-.538.104-.541-.538-.002-.364.004-.728-.002-1.09-.004-.171.054-.244.233-.238.195.006.456.055.568-.047.107-.096.064-.363.08-.556.12-1.326.8-2.188 1.996-2.493a3.537 3.537 0 0 1 1.758.005c.181.045.261.13.257.326-.013.536-.005 1.071-.005 1.609h.002ZM65.587 14.95a2.73 2.73 0 0 1 2.73-2.755c1.508-.003 2.67 1.154 2.667 2.655a2.724 2.724 0 0 1-2.743 2.743c-1.492.002-2.649-1.15-2.654-2.642ZM35.666 25.001c0 .987-.004 1.975.004 2.962.002.214-.06.292-.283.287a47.402 47.402 0 0 0-1.776-.001c-.186.002-.267-.04-.266-.248.007-2.006.006-4.013.001-6.019 0-.178.042-.253.239-.25a49.53 49.53 0 0 0 1.824 0c.197-.002.262.065.26.26-.006 1.003-.003 2.005-.003 3.008v.001Zm-1.164-3.953a1.278 1.278 0 0 1-1.295-1.29c.002-.706.605-1.3 1.309-1.288a1.301 1.301 0 0 1 1.291 1.303c-.003.725-.567 1.276-1.305 1.275Z"/></g></g><defs><clipPath id="a"><path fill="#fff" d="M.367.66h76.236v27.804H.367z"/></clipPath></defs></svg>